<?xml version="1.0" encoding="UTF-8" standalone="no"?>
<svg
   xmlns:dc="http://purl.org/dc/elements/1.1/"
   xmlns:cc="http://creativecommons.org/ns#"
   xmlns:rdf="http://www.w3.org/1999/02/22-rdf-syntax-ns#"
   xmlns:svg="http://www.w3.org/2000/svg"
   xmlns="http://www.w3.org/2000/svg"
   xmlns:sodipodi="http://sodipodi.sourceforge.net/DTD/sodipodi-0.dtd"
   xmlns:inkscape="http://www.inkscape.org/namespaces/inkscape"
   version="1.1"
   id="Layer_1"
   x="0px"
   y="0px"
   viewBox="0 0 157.68954 72.598938"
   xml:space="preserve"
   sodipodi:docname="fire.svg"
   width="157.68954"
   height="72.598938"
   inkscape:version="1.0.1 (3bc2e813f5, 2020-09-07)"><metadata
   id="metadata957"><rdf:RDF><cc:Work
       rdf:about=""><dc:format>image/svg+xml</dc:format><dc:type
         rdf:resource="http://purl.org/dc/dcmitype/StillImage" /><dc:title></dc:title></cc:Work></rdf:RDF></metadata><defs
   id="defs955" /><sodipodi:namedview
   pagecolor="#ffffff"
   bordercolor="#666666"
   borderopacity="1"
   objecttolerance="10"
   gridtolerance="10"
   guidetolerance="10"
   inkscape:pageopacity="0"
   inkscape:pageshadow="2"
   inkscape:window-width="1920"
   inkscape:window-height="1001"
   id="namedview953"
   showgrid="false"
   fit-margin-top="0"
   fit-margin-left="0"
   fit-margin-right="0"
   fit-margin-bottom="0"
   inkscape:zoom="2.8284271"
   inkscape:cx="139.37699"
   inkscape:cy="44.225613"
   inkscape:window-x="1911"
   inkscape:window-y="-9"
   inkscape:window-maximized="1"
   inkscape:current-layer="Layer_1" />
<path
   style="fill:#ffce54;stroke-width:0.7"
   d="M 22.082743,36.65675 C 28.91983,33.40823 37.667023,29.33261 46.924536,25.30302 81.82867,10.07413 94.535662,7.7932901 99.013703,7.8007101 c 6.720767,-0.008 13.148007,1.88734 18.600657,5.4679899 l 1.88684,1.23743 35.18973,-0.20095 -3.24851,45.13526 -31.88727,-0.68801 -1.94178,1.2607 c -5.44473,3.58856 -11.8794,5.4754 -18.608087,5.49124 C 94.535167,65.48907 81.82075,63.23046 46.931465,48.00256 37.674942,43.95812 28.90399,39.88943 22.082743,36.65675 Z"
   id="path896" />
<path
   style="fill:#f6bb42;stroke-width:0.7"
   d="m 157.68954,6.4658601 -40.99826,0.22422 C 110.2873,2.4828001 102.46818,-4.899275e-4 93.991743,7.2501166e-8 72.337093,-4.899275e-4 0,36.29551 0,36.29551 c 0,0 72.321254,36.296 93.999663,36.30343 8.453177,-0.008 16.288127,-2.49022 22.699047,-6.70542 l 36.64397,0.78799 z M 117.0244,50.99775 l -4.64039,-0.0926 -3.87466,2.54417 c -4.23104,2.77681 -9.258007,4.24688 -14.517112,4.24639 -1.732411,0 -12.273888,-0.81226 -49.042098,-16.85192 -3.50343,-1.53937 -6.929646,-3.0629 -10.200934,-4.55525 3.278713,-1.48492 6.697504,-3.01588 10.194005,-4.53248 36.775634,-16.04808 47.309191,-16.86825 49.056947,-16.8529 5.267025,-0.007 10.286562,1.47008 14.501272,4.24639 l 8.28241,2.45167 v 0 l 24.87248,-0.15444 -2.15809,30.03111 z"
   id="path898"
   sodipodi:nodetypes="cccccccccccccccccccccc" />





<g
   id="g922"
   transform="matrix(0.49497475,0.49497475,-0.49497475,0.49497475,252.61828,-216.32277)">
</g>
<g
   id="g924"
   transform="matrix(0.49497475,0.49497475,-0.49497475,0.49497475,252.61828,-216.32277)">
</g>
<g
   id="g926"
   transform="matrix(0.49497475,0.49497475,-0.49497475,0.49497475,252.61828,-216.32277)">
</g>
<g
   id="g928"
   transform="matrix(0.49497475,0.49497475,-0.49497475,0.49497475,252.61828,-216.32277)">
</g>
<g
   id="g930"
   transform="matrix(0.49497475,0.49497475,-0.49497475,0.49497475,252.61828,-216.32277)">
</g>
<g
   id="g932"
   transform="matrix(0.49497475,0.49497475,-0.49497475,0.49497475,252.61828,-216.32277)">
</g>
<g
   id="g934"
   transform="matrix(0.49497475,0.49497475,-0.49497475,0.49497475,252.61828,-216.32277)">
</g>
<g
   id="g936"
   transform="matrix(0.49497475,0.49497475,-0.49497475,0.49497475,252.61828,-216.32277)">
</g>
<g
   id="g938"
   transform="matrix(0.49497475,0.49497475,-0.49497475,0.49497475,252.61828,-216.32277)">
</g>
<g
   id="g940"
   transform="matrix(0.49497475,0.49497475,-0.49497475,0.49497475,252.61828,-216.32277)">
</g>
<g
   id="g942"
   transform="matrix(0.49497475,0.49497475,-0.49497475,0.49497475,252.61828,-216.32277)">
</g>
<g
   id="g944"
   transform="matrix(0.49497475,0.49497475,-0.49497475,0.49497475,252.61828,-216.32277)">
</g>
<g
   id="g946"
   transform="matrix(0.49497475,0.49497475,-0.49497475,0.49497475,252.61828,-216.32277)">
</g>
<g
   id="g948"
   transform="matrix(0.49497475,0.49497475,-0.49497475,0.49497475,252.61828,-216.32277)">
</g>
<g
   id="g950"
   transform="matrix(0.49497475,0.49497475,-0.49497475,0.49497475,252.61828,-216.32277)">
</g>
</svg>
