<?xml version="1.0" encoding="UTF-8" standalone="no"?>
<svg
   xmlns:dc="http://purl.org/dc/elements/1.1/"
   xmlns:cc="http://creativecommons.org/ns#"
   xmlns:rdf="http://www.w3.org/1999/02/22-rdf-syntax-ns#"
   xmlns:svg="http://www.w3.org/2000/svg"
   xmlns="http://www.w3.org/2000/svg"
   xmlns:sodipodi="http://sodipodi.sourceforge.net/DTD/sodipodi-0.dtd"
   xmlns:inkscape="http://www.inkscape.org/namespaces/inkscape"
   width="210mm"
   height="128.27901mm"
   viewBox="0 0 210 128.279"
   version="1.1"
   id="svg984"
   inkscape:version="1.0.1 (3bc2e813f5, 2020-09-07)"
   sodipodi:docname="rocket.svg">
  <defs
     id="defs978" />
  <sodipodi:namedview
     id="base"
     pagecolor="#ffffff"
     bordercolor="#666666"
     borderopacity="1.0"
     inkscape:pageopacity="0.0"
     inkscape:pageshadow="2"
     inkscape:zoom="0.98994949"
     inkscape:cx="396.62786"
     inkscape:cy="265.34637"
     inkscape:document-units="mm"
     inkscape:current-layer="layer1"
     inkscape:document-rotation="0"
     showgrid="false"
     inkscape:window-width="1677"
     inkscape:window-height="1019"
     inkscape:window-x="1952"
     inkscape:window-y="0"
     inkscape:window-maximized="0" />
  <metadata
     id="metadata981">
    <rdf:RDF>
      <cc:Work
         rdf:about="">
        <dc:format>image/svg+xml</dc:format>
        <dc:type
           rdf:resource="http://purl.org/dc/dcmitype/StillImage" />
        <dc:title></dc:title>
      </cc:Work>
    </rdf:RDF>
  </metadata>
  <g
     inkscape:label="Warstwa 1"
     inkscape:groupmode="layer"
     id="layer1">
    <g
       id="g904"
       transform="matrix(0.26192414,0.26192414,-0.26192414,0.26192414,76.152194,-70.34975)">
      <path
         style="fill:#da4453"
         d="m 199.909,423.397 c 5.969,-2.797 11.938,-5.767 17.875,-8.876 L 339.285,327.74 c 4.969,-4.641 9.875,-9.391 14.719,-14.203 2.781,-2.812 5.563,-5.625 8.282,-8.469 -0.469,55.359 -25.845,115.923 -74.032,164.127 -16.062,16.047 -33.469,29.562 -51.625,40.484 -0.125,0.078 -0.845,0.5 -0.845,0.5 -4.031,2.188 -9.188,1.578 -12.594,-1.828 -1.125,-1.141 -1.938,-2.469 -2.438,-3.875 0,0 -0.375,-1.109 -0.469,-1.594 l -21.938,-78.767 c 0.533,-0.234 1.033,-0.484 1.564,-0.718 z"
         id="path900" />
      <path
         style="fill:#da4453"
         d="m 207.534,150.269 c -2.844,2.734 -5.656,5.516 -8.469,8.312 -4.813,4.828 -9.563,9.734 -14.188,14.703 -21.281,3 -86.812,121.517 -86.812,121.517 -3.094,5.938 -6.062,11.892 -8.875,17.876 -0.25,0.516 -0.469,1.031 -0.719,1.547 L 9.688,292.285 c -0.469,-0.094 -1.594,-0.469 -1.594,-0.469 -1.406,-0.5 -2.719,-1.312 -3.875,-2.453 -3.406,-3.406 -4,-8.547 -1.812,-12.594 0,0 0.406,-0.703 0.5,-0.828 10.906,-18.157 24.406,-35.563 40.469,-51.625 48.219,-48.219 108.782,-73.594 164.158,-74.047 z"
         id="path902" />
    </g>
    <path
       style="fill:#e6e9ed;stroke-width:0.370416"
       d="m 88.188394,21.561896 c -31.64828,0.004 -61.13518,6.6707 -85.0077397,17.82316 -1.31774,0.64668 -2.22633999,1.98068 -2.22241999,3.54828 l -0.008,43.43882 c 0.008,1.56342 0.91253999,2.9016 2.23027999,3.54828 23.8764797,11.156404 53.3555197,17.823424 85.0038197,17.819744 49.168646,0.008 92.627886,-15.851124 118.951786,-40.112104 0.78576,-0.7203 1.34654,-1.82116 1.35048,-2.97128 -0.004,-1.15822 -0.56078,-2.2549 -1.35468,-2.9833 -26.3231,-24.26072 -69.78288,-40.1116 -118.943406,-40.1116 z"
       id="path906" />
    <g
       id="g912"
       transform="matrix(0.26192414,0.26192414,-0.26192414,0.26192414,76.152194,-70.34975)">
      <path
         style="fill:#434a54"
         d="m 317.598,237.535 c -11.375,0 -22.062,-4.438 -30.094,-12.469 -8.031,-8.047 -12.469,-18.735 -12.469,-30.11 0,-11.375 4.438,-22.063 12.469,-30.11 8.031,-8.031 18.75,-12.469 30.094,-12.469 11.375,0 22.062,4.438 30.125,12.469 16.595,16.61 16.595,43.625 0,60.22 -8.062,8.031 -18.75,12.469 -30.094,12.469 -0.031,0 -0.031,0 -0.031,0 z"
         id="path908" />
      <path
         style="fill:#434a54"
         d="m 227.284,327.849 c -11.375,0 -22.062,-4.422 -30.094,-12.469 -8.032,-8.031 -12.47,-18.735 -12.47,-30.095 0,-11.375 4.438,-22.078 12.47,-30.125 8.031,-8.031 18.719,-12.469 30.094,-12.469 11.376,0 22.063,4.438 30.126,12.469 16.594,16.61 16.594,43.626 0,60.22 -8.063,8.047 -18.75,12.469 -30.126,12.469 z"
         id="path910" />
    </g>
    <g
       id="g918"
       transform="matrix(0.26192414,0.26192414,-0.26192414,0.26192414,76.152194,-70.34975)">
      <path
         style="fill:#ccd1d9"
         d="m 355.254,157.331 c -10.062,-10.047 -23.438,-15.594 -37.656,-15.594 -14.188,0 -27.562,5.547 -37.625,15.594 -10.031,10.047 -15.594,23.422 -15.594,37.625 0,14.219 5.562,27.579 15.594,37.641 10.062,10.046 23.438,15.578 37.625,15.578 14.219,0 27.594,-5.531 37.656,-15.578 20.751,-20.75 20.751,-54.515 0,-75.266 z m -15.062,60.204 c -6.25,6.234 -14.406,9.359 -22.594,9.359 -8.156,0 -16.344,-3.125 -22.562,-9.359 -12.469,-12.469 -12.469,-32.688 0,-45.157 6.219,-6.234 14.406,-9.344 22.562,-9.344 8.188,0 16.344,3.109 22.594,9.344 12.468,12.469 12.468,32.688 0,45.157 z"
         id="path914" />
      <path
         style="fill:#ccd1d9"
         d="m 227.284,232.067 c -14.219,0 -27.562,5.531 -37.626,15.578 -10.062,10.046 -15.594,23.422 -15.594,37.641 0,14.204 5.531,27.563 15.594,37.626 10.063,10.047 23.407,15.594 37.626,15.594 14.22,0 27.595,-5.547 37.658,-15.594 20.75,-20.75 20.75,-54.517 0,-75.267 -10.063,-10.047 -23.438,-15.578 -37.658,-15.578 z m 22.595,75.782 c -6.25,6.25 -14.407,9.359 -22.595,9.359 -8.156,0 -16.344,-3.109 -22.562,-9.359 -12.47,-12.47 -12.47,-32.688 0,-45.157 6.219,-6.235 14.406,-9.344 22.562,-9.344 8.188,0 16.345,3.109 22.595,9.344 12.469,12.468 12.469,32.687 0,45.157 z"
         id="path916" />
    </g>
    <path
       style="fill:#da4453;stroke-width:0.370416"
       d="m 163.48006,93.363576 -0.004,-58.91328 c 17.21758,6.78148 32.09434,15.82204 43.65566,26.47502 0.7939,0.72842 1.35048,1.82508 1.35468,2.98332 -0.004,1.1501 -0.56472,2.25098 -1.35048,2.97126 -11.56578,10.6653 -26.44254,19.69802 -43.65594,26.48368 z"
       id="path920" />
  </g>
</svg>
